<svg width="18" height="18" viewBox="0 0 18 18" fill="none" xmlns="http://www.w3.org/2000/svg">
<path d="M9.00037 1.5C9.67237 1.5 10.3234 1.5885 10.9429 1.75425L9.34837 3.348C9.2274 3.46945 9.12071 3.60432 9.03037 3.75H9.00037C7.96201 3.75 6.94698 4.05791 6.08362 4.63478C5.22026 5.21166 4.54736 6.0316 4.15 6.99091C3.75264 7.95022 3.64867 9.00582 3.85124 10.0242C4.05382 11.0426 4.55383 11.9781 5.28806 12.7123C6.02228 13.4465 6.95774 13.9465 7.97614 14.1491C8.99454 14.3517 10.0501 14.2477 11.0095 13.8504C11.9688 13.453 12.7887 12.7801 13.3656 11.9167C13.9425 11.0534 14.2504 10.0384 14.2504 9V8.97C14.3944 8.88 14.5294 8.77425 14.6516 8.65125L16.2461 7.0575C16.4119 7.677 16.5004 8.328 16.5004 9C16.5004 13.1422 13.1426 16.5 9.00037 16.5C4.85812 16.5 1.50037 13.1422 1.50037 9C1.50037 4.85775 4.85812 1.5 9.00037 1.5ZM8.68987 5.26275C8.68987 5.901 8.65837 6.54825 8.69287 7.18575L8.28787 7.59075C8.14855 7.73007 8.03804 7.89546 7.96264 8.07748C7.88724 8.25951 7.84844 8.4546 7.84844 8.65162C7.84844 8.84865 7.88724 9.04374 7.96264 9.22577C8.03804 9.40779 8.14855 9.57318 8.28787 9.7125C8.42718 9.85182 8.59257 9.96233 8.7746 10.0377C8.95662 10.1131 9.15172 10.1519 9.34874 10.1519C9.54576 10.1519 9.74086 10.1131 9.92288 10.0377C10.1049 9.96233 10.2703 9.85182 10.4096 9.7125L10.8146 9.3075C11.4521 9.342 12.0986 9.3105 12.7376 9.3105C12.6784 10.0233 12.4165 10.7042 11.983 11.273C11.5494 11.8419 10.9623 12.2748 10.2907 12.5209C9.61916 12.767 8.89125 12.8159 8.19282 12.6618C7.4944 12.5078 6.85459 12.1572 6.34885 11.6515C5.84312 11.1458 5.49256 10.506 5.33852 9.80754C5.18447 9.10911 5.23337 8.3812 5.47944 7.70965C5.72552 7.0381 6.1585 6.45093 6.72733 6.01738C7.29616 5.58383 7.97711 5.322 8.68987 5.26275ZM13.8784 1.59525C14.0153 1.65201 14.1323 1.74805 14.2146 1.87126C14.297 1.99446 14.341 2.1393 14.3411 2.2875V3.66H15.7129C15.8612 3.66003 16.0062 3.70404 16.1295 3.78645C16.2528 3.86886 16.3489 3.98598 16.4056 4.12301C16.4624 4.26003 16.4772 4.41081 16.4483 4.55627C16.4194 4.70174 16.348 4.83536 16.2431 4.94025L13.5904 7.59C13.4497 7.73066 13.259 7.80971 13.0601 7.80975H11.2504L9.87862 9.1815C9.73788 9.32213 9.54705 9.4011 9.3481 9.40103C9.14915 9.40096 8.95837 9.32185 8.81774 9.18112C8.67711 9.04039 8.59814 8.84956 8.59821 8.65061C8.59828 8.45166 8.67739 8.26088 8.81812 8.12025L10.1899 6.75V4.9395C10.1898 4.84089 10.2092 4.74323 10.2469 4.65212C10.2846 4.561 10.3399 4.47822 10.4096 4.4085L13.0609 1.75725C13.1657 1.6523 13.2994 1.58082 13.4449 1.55185C13.5904 1.52288 13.7413 1.53772 13.8784 1.5945V1.59525Z" fill="#FF333F"/>
</svg>
