<svg width="100" height="23" viewBox="0 0 100 23" fill="none" xmlns="http://www.w3.org/2000/svg">
<path d="M10.8676 0H14.5874V11.426C14.5874 12.7089 14.281 13.8314 13.6682 14.7936C13.0611 15.7558 12.2106 16.5061 11.1167 17.0444C10.0228 17.5771 8.74845 17.8434 7.29372 17.8434C5.83326 17.8434 4.55607 17.5771 3.46215 17.0444C2.36824 16.5061 1.51774 15.7558 0.910641 14.7936C0.303547 13.8314 0 12.7089 0 11.426V0H3.71988V11.1081C3.71988 11.7782 3.86593 12.3738 4.15802 12.895C4.45584 13.4162 4.87393 13.8257 5.4123 14.1235C5.95066 14.4213 6.57781 14.5703 7.29372 14.5703C8.01536 14.5703 8.6425 14.4213 9.17513 14.1235C9.7135 13.8257 10.1287 13.4162 10.4208 12.895C10.7186 12.3738 10.8676 11.7782 10.8676 11.1081V0Z" fill="#3D67FF"/>
<path d="M17.0954 22.5427V4.39857H20.7036V6.61503H20.8668C21.0272 6.25994 21.2591 5.89912 21.5627 5.53257C21.872 5.1603 22.2729 4.85102 22.7654 4.60475C23.2637 4.35275 23.8822 4.22675 24.6211 4.22675C25.5833 4.22675 26.471 4.47875 27.2843 4.98275C28.0975 5.48103 28.7476 6.23417 29.2344 7.24217C29.7212 8.24445 29.9646 9.50159 29.9646 11.0136C29.9646 12.4855 29.727 13.7283 29.2516 14.7421C28.7819 15.7501 28.1405 16.5147 27.3272 17.0359C26.5197 17.5513 25.6148 17.809 24.6125 17.809C23.9023 17.809 23.2981 17.6916 22.7998 17.4568C22.3072 17.222 21.9035 16.927 21.5885 16.5719C21.2735 16.2111 21.0329 15.8474 20.8668 15.4809H20.7551V22.5427H17.0954ZM20.6778 10.9964C20.6778 11.7811 20.7866 12.4655 21.0043 13.0497C21.2219 13.6338 21.5369 14.0892 21.9493 14.4156C22.3616 14.7363 22.8628 14.8967 23.4527 14.8967C24.0483 14.8967 24.5523 14.7335 24.9647 14.407C25.3771 14.0748 25.6892 13.6167 25.9011 13.0325C26.1188 12.4426 26.2276 11.7639 26.2276 10.9964C26.2276 10.2347 26.1216 9.56459 25.9097 8.98613C25.6978 8.40768 25.3857 7.95522 24.9733 7.62876C24.5609 7.30231 24.0541 7.13908 23.4527 7.13908C22.8571 7.13908 22.3531 7.29658 21.9407 7.61158C21.5341 7.92658 21.2219 8.37331 21.0043 8.95177C20.7866 9.53023 20.6778 10.2118 20.6778 10.9964Z" fill="#3D67FF"/>
<path d="M34.1951 17.5943H30.2089L36.2827 0H41.0764L47.1416 17.5943H43.1554L38.7483 4.02056H38.6108L34.1951 17.5943ZM33.9459 10.6786H43.3616V13.5823H33.9459V10.6786Z" fill="#3D67FF"/>
<path d="M48.7067 17.5943V4.39857H52.2548V6.70094H52.3923C52.6328 5.88194 53.0366 5.26339 53.6036 4.8453C54.1706 4.42148 54.8235 4.20957 55.5623 4.20957C55.7456 4.20957 55.9432 4.22102 56.1551 4.24393C56.367 4.26684 56.5531 4.29834 56.7135 4.33843V7.58581C56.5417 7.53426 56.304 7.48844 56.0005 7.44835C55.6969 7.40826 55.4191 7.38822 55.1671 7.38822C54.6288 7.38822 54.1477 7.50563 53.7239 7.74045C53.3058 7.96954 52.9736 8.29027 52.7273 8.70263C52.4868 9.115 52.3665 9.59036 52.3665 10.1287V17.5943H48.7067Z" fill="#3D67FF"/>
<path d="M58.1218 17.5943V4.39857H61.6699V6.70094H61.8073C62.0479 5.88194 62.4517 5.26339 63.0187 4.8453C63.5857 4.42148 64.2386 4.20957 64.9774 4.20957C65.1607 4.20957 65.3583 4.22102 65.5702 4.24393C65.7821 4.26684 65.9682 4.29834 66.1286 4.33843V7.58581C65.9568 7.53426 65.7191 7.48844 65.4155 7.44835C65.112 7.40826 64.8342 7.38822 64.5822 7.38822C64.0438 7.38822 63.5628 7.50563 63.1389 7.74045C62.7208 7.96954 62.3887 8.29027 62.1424 8.70263C61.9018 9.115 61.7816 9.59036 61.7816 10.1287V17.5943H58.1218Z" fill="#3D67FF"/>
<path d="M72.8848 17.852C71.5503 17.852 70.3963 17.5685 69.4226 17.0015C68.4547 16.4288 67.7073 15.6327 67.1804 14.6132C66.6535 13.588 66.39 12.3996 66.39 11.048C66.39 9.68486 66.6535 8.49359 67.1804 7.47413C67.7073 6.44894 68.4547 5.65285 69.4226 5.08584C70.3963 4.51311 71.5503 4.22675 72.8848 4.22675C74.2192 4.22675 75.3704 4.51311 76.3383 5.08584C77.312 5.65285 78.0622 6.44894 78.5892 7.47413C79.1161 8.49359 79.3795 9.68486 79.3795 11.048C79.3795 12.3996 79.1161 13.588 78.5892 14.6132C78.0622 15.6327 77.312 16.4288 76.3383 17.0015C75.3704 17.5685 74.2192 17.852 72.8848 17.852ZM72.9019 15.017C73.509 15.017 74.0159 14.8452 74.4225 14.5015C74.8292 14.1522 75.1356 13.6768 75.3418 13.0754C75.5537 12.4741 75.6596 11.7896 75.6596 11.0222C75.6596 10.2547 75.5537 9.57032 75.3418 8.96895C75.1356 8.36759 74.8292 7.89222 74.4225 7.54285C74.0159 7.19349 73.509 7.01881 72.9019 7.01881C72.2891 7.01881 71.7737 7.19349 71.3556 7.54285C70.9432 7.89222 70.6311 8.36759 70.4192 8.96895C70.213 9.57032 70.1099 10.2547 70.1099 11.0222C70.1099 11.7896 70.213 12.4741 70.4192 13.0754C70.6311 13.6768 70.9432 14.1522 71.3556 14.5015C71.7737 14.8452 72.2891 15.017 72.9019 15.017Z" fill="#3D67FF"/>
<path d="M83.5477 17.5943L79.9567 4.39857H83.6594L85.704 13.2644H85.8243L87.9548 4.39857H91.5888L93.7537 13.2129H93.8654L95.8757 4.39857H99.5698L95.9874 17.5943H92.1129L89.8448 9.29541H89.6816L87.4136 17.5943H83.5477Z" fill="#3D67FF"/>
</svg>
